<svg xmlns="http://www.w3.org/2000/svg" version="1.1" width="600px" height="600px" viewBox="0 0 200 200" style="overflow:hidden!important;"><g id="svga-group-wrapper"><g id="svga-group-backs-single"><path id="SvgjsPath9024" d="M0 0h200v200H0V0z" fill="#ecf0f1" stroke-width="none" opacity="1"></path><path id="SvgjsPath9025" d="M0 0v10.1L76.5 100 0 0zm0 34.1V50l76.5 58.3L0 34.1zm0 37.1v13.6l76.5 33.4L0 71.2zM38.3 0H21.1l67.2 108.3L38.3 0zm36.3 0H61l27.2 90L74.6 0zM0 108.3v9.9l76.5 9.9L0 108.3zM0 144v13.6l76.5-22.1L0 144zm0 35.7V200l88.3-64.5L0 179.7zM38.3 200h16.4l26.5-42.4L38.3 200zm85.2-100L200 10.1V0l-76.5 100zM200 50V34.1l-76.5 74.2L200 50zm0 34.8V71.2l-76.5 47L200 84.8zM178.9 0h-17.2l-50 108.3L178.9 0zM139 0h-13.6l-13.6 90L139 0zm61 118.2v-9.9L123.5 128l76.5-9.8zm0 39.4V144l-76.5-8.5 76.5 22.1zm0 42.4v-20.3l-88.3-44.2L200 200zm-54.7 0h16.4l-43-42.4 26.6 42.4zM111.7 0H88.3L100 100 111.7 0zM76.5 200h11.7l6.4-58.5L76.5 200zm35.2 0h11.7l-18.2-58.5 6.5 58.5zm-17 0h10.6l-5.3-42.4-5.3 42.4z" fill="#c6dce2" stroke-width="none" opacity="1"></path></g><g id="svga-group-humanwrap-move" transform="matrix(1,0,0,1,0,0)"><g id="svga-group-humanwrap"><g id="svga-group-hair-back-move" transform="matrix(1,0,0,1,0,0)"><g id="svga-group-hair-back"></g></g><g id="svga-group-humanbody-back"><path id="SvgjsPath4865" d="M180.8 184.9c-2.3-3.4-38.9-17.8-38.9-17.8l-13.4-5.2-5.6-68.8H76.8L71.3 162l-13.4 5.2S21.4 181.6 19 185c-2.3 3.4-3.3 14.9-3.3 14.9V219h168.5v-19.2c-.1.1-1-11.5-3.4-14.9z" fill="#f0c7b1" stroke-width="none" opacity="1" stroke="none"></path></g><g id="svga-group-chinshadow-single"><path id="SvgjsPath4861" d="M83.41 160.9c3 1.6 18.4 1.6 21.4 0 2.3-1.22 14.94-13.04 22.02-20.04l-3.89-47.76H76.82l-4.61 58.02c5.18 4.83 9.98 9.09 11.2 9.78z" fill="#d19271" stroke-width="none" opacity="1" stroke="none"></path></g><g id="svga-group-humanbody-front"><path id="SvgjsPath4866" d="M184.5 219c-.1-6.4-.1-12.8-.1-19.2l-.3-.1s.1-.1.2 0c.1 0 .1.1.1.1v-.4l-.1-.5-.1-.9-.2-1.9c-.2-1.3-.4-2.5-.6-3.8-.2-1.3-.5-2.5-.9-3.8-.4-1.2-.8-2.5-1.5-3.6-.8-.9-1.9-1.5-2.9-2.1-1-.6-2.1-1.1-3.2-1.7-2.1-1.1-4.3-2.1-6.5-3.1-4.4-2-8.7-3.9-13.1-5.7-4.4-1.9-8.8-3.7-13.2-5.5l-13-5.2-1.2-16.9c-.4-5.7-.9-11.5-1.3-17.2l-1.3-17.2-1.5-17.3-.1-.8h-.8c-7.7 0-15.4.1-23.1.1l-23.1.2h-.5v.5L75 110.2l-1.3 17.2c-.8 11.4-1.8 22.8-2.8 34.2-5.6 2.1-11.2 4.2-16.7 6.4-5.6 2.2-11.2 4.5-16.8 6.9-2.8 1.2-5.6 2.4-8.3 3.6-2.8 1.3-5.5 2.5-8.2 4.1-.7.4-1.3.8-2 1.4-.2.1-.4.4-.5.6l-.3.6c-.2.4-.4.7-.5 1.1-.6 1.5-1 3-1.3 4.5-.6 3-1.1 6-1.4 9.1l-.1 19.1v.9h.9l42.1.1H100c14 0 28.1-.1 42.1-.2l42.1-.5h.3v-.3zm-84.5-1-42.1-.1-41.2.1-.1-18.1c.3-3 .6-5.9 1.2-8.9.3-1.4.6-2.9 1.1-4.2.1-.3.3-.7.4-.9l.2-.4.3-.3c.5-.4 1.1-.8 1.8-1.2 2.5-1.5 5.3-2.8 8-4.1 2.7-1.3 5.5-2.5 8.2-3.7 5.5-2.4 11.1-4.8 16.7-7.1s11.2-4.5 16.9-6.7l.2-.1v-.2c.9-11.5 1.7-23 2.7-34.4l1.4-17.2 1.5-16.7 22.6.2c7.4.1 14.8.1 22.3.1l1.3 16.4 1.5 17.2c.5 5.7 1 11.5 1.5 17.2l1.6 17.2v.3l.3.1 13.4 5c4.4 1.7 8.9 3.4 13.3 5.2 4.4 1.8 8.8 3.7 13.2 5.6 2.2 1 4.3 2 6.5 3 1.1.5 2.1 1.1 3.2 1.6 1 .6 2.1 1.2 2.9 2 .7 1.1 1.1 2.3 1.4 3.5.3 1.2.6 2.5.8 3.7.2 1.3.4 2.5.6 3.8l.2 1.9.1.9.1.5v.4c0 6.3 0 12.6-.1 18.9l-41.8-.5c-14 .1-28.1 0-42.1 0z" fill="#c27b55" stroke-width="none" opacity="1" stroke="none"></path><path id="SvgjsPath4867" d="M125.1 142.4s-1.8 23-9.1 32.9c0 0 7.9-25 9.1-32.9zm-34.5 16s5 7.9 11.5 10.1c0 0-9.5 2.2-11.5-10.1zM73.4 140c6.7 25.6 6.7 25.6 8.5 30.7 0 0 .4-12.6-8.5-30.7z" fill="#d19271" stroke-width="none" opacity="1" stroke="none"></path></g><g id="svga-group-clothes-single"><path id="SvgjsPath8897" d="M10.9 220c0-15.2 1.2-32.2 2.3-34.1 1-1.9 5-3.3 5-3.3s3.5-2.9 7.1-4.8c3.5-1.9 15.7-3.9 15.7-3.9s0-1 .4-1.9 1.9-1.2 5-5.2 2.1-4.8 2.7-6.7c.6-1.9 4.4-1.5 4.4-1.5s.4-6 4.8-10c4.4-3.9 13.6-6.6 13.6-6.6s-.1 6.9-.1 11.3-1.3 4.6 5.1 12.6c6.5 7.9 12.4 15.1 15.4 17 3.1 1.9 7.2 4 9.1 9.5 0 0 1.7-4.4 3.7-5.9s6.2-6 7.9-7.7c1.7-1.7 5.3-8.1 7.5-9.5 2.2-1.5 7.4-6.5 8.3-7.9s-.9-21.7-.9-21.7 6.9 3.7 9.4 5.4c2.5 1.7 4.9 9.5 4.9 9.5s2.4 2.1 5.1 4.1 4.7 2.9 6.2 5.7c1.5 2.8.8 5.3 1.4 6.5.6 1.1 1.2 2 1.6 2.6 0 0 17.1 5.1 20 6.4s5.7 4 5.7 4 3.1 1.9 3.9 9.8 1.8 26.4 1.8 26.4l-177-.1z" fill="#000000" stroke-width="none" opacity="1" stroke="none"></path><path id="SvgjsPath8898" d="m188.6 219.9-1.2-18.6c-.2-3.1-.4-6.2-.9-9.3-.2-1.6-.6-3.2-1.2-4.7-.3-.8-.7-1.5-1.1-2.2-.2-.4-.5-.7-.8-1-.3-.3-.5-.6-.9-.9-1.5-1.4-3.1-2.6-4.9-3.6-.9-.5-1.9-.9-2.8-1.2l-2.8-1.1-15.3-4.3c-.5-.8-1.1-1.6-1.4-2.4-.1-.3-.2-.8-.2-1.3s-.1-1-.1-1.6c-.2-2.2-1.2-4.3-2.7-5.9-1.6-1.6-3.4-2.6-5.1-3.8-1.6-1.1-3.2-2.4-4.7-3.7-.6-1.7-1.2-3.3-1.9-4.9-.4-.8-.8-1.6-1.3-2.4-.5-.8-1-1.6-1.9-2.2-1.5-1-3.1-1.9-4.7-2.8-1.6-.9-3.2-1.7-4.8-2.6l-.7-.4s.7 11.7 1 17.3c0 1.4.4 3 .3 4.3 0 .2 0 .3-.1.5 0 .1 0 .1-.1.2l-.1.2c-.2.3-.4.5-.6.8-.4.5-.9 1-1.4 1.5-2 2-4 3.9-6.2 5.6-1.1.9-2 2.1-2.8 3.2-.8 1.1-1.6 2.3-2.4 3.4-.4.6-.8 1.1-1.2 1.7-.4.6-.8 1.1-1.4 1.5-1.1.8-3.5 4.2-6.3 6.5-.6.4-1.2.7-1.8 1.3-.5.5-.9 1.1-1.3 1.7-.6.9-1.1 1.8-1.5 2.8-.9-2.2-2.5-4.3-4.4-5.8-1.1-.9-2.2-1.6-3.4-2.4-1.2-.7-2.1-1.7-3.2-2.5-4.4-4-4.4-6-8.3-9.7-1.9-1.9-3.6-4.1-5.2-6.2-.8-1.1-1.7-2.1-2.4-3.2-.8-1.1-1.4-2.2-1.8-3.4-.4-1.1-.2-2.4-.1-3.8l.1-4.1.1-8.1v-1.2l-1.2.3c-2.2.6-4.3 1.4-6.3 2.3-2.1.9-4.1 1.9-6 3.2-1.9 1.3-3.6 3.1-4.6 5.2-1 1.8-1.6 3.8-1.9 5.8-.7 0-1.4.1-2.2.2-.5.1-1 .3-1.5.7-.2.2-.5.5-.6.8-.2.3-.2.6-.3.8-.1.5-.2 1-.2 1.4 0 .4-.1.8-.2 1.1-.2.7-.7 1.5-1.1 2.2-1 1.4-2.1 2.8-3.3 4-.6.6-1.2 1.1-2 1.8-.2.2-.4.4-.6.7-.2.3-.2.5-.3.8-.1.3-.2.6-.2 1-1.5.4-7.5.9-9 1.4-1.6.6-3.2 1.1-4.8 1.8-1.6.7-3.1 1.6-4.5 2.6-1.4.9-2.7 1.9-4 3-1.6.7-3.1 1.4-4.4 2.6-.3.3-.6.7-.9 1.2-.2.5-.2.9-.3 1.3-.2.9-.3 1.7-.4 2.5-.4 3.4-.6 6.7-.8 10.1-.2 3.4-.3 6.7-.3 10.1 0 1.7-.1 3.4-.1 5 0 1.7 0 3.3.1 5.1l43.9.4 44.2.3c14.7.1 29.5.1 44.3.2 14.8 0 29.6.1 44.4 0h1.1l-.1-1.1zm-85-30.9c.4-.6.8-1.1 1.2-1.6.4-.5 1-.8 1.6-1.2 2.4-1.4 3.4-4.9 12.8-9.5 3.2-1.6 6-3.6 8.7-5.7 1.4-1.1 2.7-2.2 4-3.3.6-.6 1.3-1.2 1.8-2s.9-1.6 1.3-2.4c.7-1.7 1.1-3.4 1.2-5.2 0-.4 0-.9-.1-1.4-.1-.4-.2-.9-.4-1.3-.3-.8-.7-1.6-1.2-2.3.3.8.5 1.6.7 2.5.1.8.2 1.6 0 2.4-.3 1.6-.9 3.2-1.7 4.6-.4.7-.8 1.4-1.3 2-.5.6-1.1 1.1-1.7 1.7-1.3 1.1-2.6 2.1-3.9 3.2-1.3 1.1-2.7 2.1-4.1 3.1l-2.1 1.5c-.7.5-1.4.9-2.1 1.4-1.5.9-2.9 1.9-4.4 2.9.1-.1.1-.2.2-.2.4-.6.8-1.1 1.2-1.7.8-1.1 1.6-2.3 2.4-3.4.8-1.1 1.7-2.3 2.7-3.1 2.3-1.6 4.3-3.6 6.3-5.6l1.5-1.5c.2-.3.5-.5.7-.8 0 0 2-2.5 2.4-3.6.5-1.3.8-2.7.7-4.2-.2-1.4-.9-5.1-1.6-6.4-.5-1.1-2-4.9-2.2-7.2 1.4.8 2.7 1.5 4.1 2.3 1.6.9 3.1 1.8 4.6 2.8.6.4 1.1 1.2 1.6 1.9.4.8.8 1.5 1.2 2.4.7 1.6 1.3 3.3 1.9 5l.1.1.1.1c.1 0 .1.1.1.1v.1c0 1.1-.1 2.3-.3 3.4-.3 2.2-1 4.4-1.8 6.5-1.5 4.2-3.9 8.1-7.5 10.4-.9.6-1.8 1.1-2.9 1.7l-3 1.8-5.8 3.6c-1 .6-1.9 1.1-2.9 1.6-.5.2-1 .5-1.5.6-.5.2-1.1.3-1.6.4-2.2.6-4.4 1.2-6.6 1.9 2.3-.3 4.6-.6 6.8-.9.6-.1 1.1-.1 1.7-.3.6-.1 1.2-.3 1.7-.6 1.1-.4 2.1-1 3.2-1.5 2.1-1.1 4-2.3 6-3.4 1-.6 2-1.1 3-1.7 1-.5 2.1-1.1 3-1.8 2-1.4 3.7-3.1 5-5.1 1.3-2 2.2-4.2 2.9-6.5.7-2.2 1.1-4.5 1.2-6.9 0-1 0-2.1-.1-3.1 1.3 1.2 2.7 2.3 4.1 3.3 1.7 1.2 3.5 2.2 4.8 3.6 1.3 1.4 2.1 3.2 2.3 5.2.1.5.1 1 .1 1.5s0 1 .3 1.7c-.8.9-1.6 1.9-2.3 2.8-.9 1.2-1.9 2.3-2.8 3.4-1.9 2.1-4.2 4.2-6.1 6.6 1.5-.6 2.8-1.4 4.1-2.2 1.3-.9 2.5-1.9 3.5-3 1.1-1.2 1.9-2.5 2.6-3.9.5-1 1-2 1.3-3.1.4.8.9 1.6 1.4 2.2l.1.2h.1c-1.5 2.2-3 4.4-4.7 6.6-1.8 2.3-3.7 4.6-5.9 6.4-2.3 1.8-4.8 3.2-7.5 4.3-2.7 1.1-5.4 2.1-8.2 2.9-2.8.8-5.7 1.3-8.6 1.8-2.9.5-5.7 1.2-8.6 1.6-3.4.6-4.8.5-5.1.5 0-1.1-.1-2.1-.3-2.8.6-.3 1.4-.9.1-1.4-1.6-.5-3.1.2-3.1.9-.1.6.5.7 1.1.7.2.6.2 1.3.2 2.1-.3-.1-.6-.3-.8-.5-.5-.4-.9-.8-1.3-1.3-.3-.5-.7-1.1-.8-1.6l-.6-2.1c.6-.9 1.1-2 1.8-3zm-61.9-14.6v-.6c0-.3.1-.8.2-1.1 0-.2.1-.4.2-.4 0-.1.1-.2.3-.3.6-.5 1.4-1.1 2-1.8 1.3-1.3 2.5-2.7 3.5-4.2.5-.8 1-1.6 1.3-2.6.3-1 .3-2 .5-2.7 0-1.1 1.6-1.3 3.1-1.3 0 .6.1 1.1.1 1.7.4 3.3 1.5 6.6 3.1 9.6 1.7 2.9 3.9 5.6 6.5 7.6 2.6 2.1 5.6 3.7 8.7 4.7-2.8-1.8-5.4-3.7-7.7-5.9s-4.3-4.7-5.8-7.4c-.8-1.4-1.4-2.8-2-4.3-.6-1.5-1-3-1.3-4.5-.1-.5-.2-1.1-.3-1.6l.1-.6c.2-2 .9-4.1 1.9-5.9 1-1.9 2.4-3.4 4.1-4.6 1.7-1.2 3.7-2.1 5.7-3 1.6-.7 3.3-1.3 5-1.9 0 0-1.7 4.2-2.2 5.1-.7 1.1-1 2.6-.7 3.9.1.7.3 1.3.6 1.8.2.6.5 1.1.8 1.6.4.7 3 5.6 3.8 6.8.8 1.1 1.7 2.2 2.5 3.3 1.7 2.1 3.6 4.9 5.6 6.8 4.1 4 3.8 6.3 8.3 9.4 1.1.8 2.3 1.5 3.5 2.2 1.2.7 2.3 1.4 3.3 2.2 2.1 1.6 3.7 3.8 4.6 6.3l.1.3-.4 1.1c-.2.6-.5 1.3-.9 1.8-.4.6-.8 1-1.2 1.1-.1 0-.2.1-.4.1h-1.3c0-.1.1-.2.1-.3.3-.6.6-1.2.8-1.5.4.1.9 0 1-.3.2-.5-.6-2.1-1.6-2-.9 0-1.3.3-.5 1.4-.6.6-1.3 1.5-1.8 2.8h-.6c-3.1-.1-6.1-.4-9.2-.7-3.1-.4-6.1-.7-9-1.5-2.9-.8-15.6-7.5-21.2-10-2.8-1.2-5.7-2.4-8.3-4.1-1.3-.9-2.5-1.8-3.5-3-.8-.9-1.6-2.1-1.9-3.3l.5-.2zm102 44.6c-14.7 0-29.3.1-44 .2l-44.2.3-44.5.4c.1-1.6.1-3.3.2-5l.2-5c.1-3.4.3-6.7.6-10.1.2-3.3.6-6.7 1-10 .1-.8.2-1.6.4-2.4.1-.4.2-.8.3-1.1.1-.3.4-.6.6-.8 1.1-1 2.7-1.8 4.2-2.4h.1l.1-.1c1.3-1 2.7-2 4.1-2.9 1.4-.9 2.8-1.8 4.3-2.4 3-1.3 10.9-2.2 14.1-3.1.3 1.3 1 2.4 1.8 3.5 1 1.2 2.2 2.3 3.4 3.2 2.5 1.9 5.4 3.2 8.2 4.5 5.6 2.7 18.2 9.9 21.2 10.8 1.5.4 3.1.8 4.6 1s3.1.5 4.6.7c3.1.4 6.2.6 9.3.8h.2v.1c-.3 2.9 1.6 8.7 2 12.1s-1 6.8-.3 7 2.5.9 2.8-.2c.3-1.1.6-10.9-.9-13.9-.9-1.8-1.3-3.6-1.3-5.1H98.5c.2 0 .5-.1.8-.1 1.1-.3 1.8-1.2 2.3-1.9.1-.1.1-.2.2-.3 0 .1.1.1.1.2.5.7 1.1 1.3 1.8 1.8.6.4 1.2.7 1.8.9-.1.5-.1.9-.2 1.3-.4 1.9-2 3.1-1.2 7.2s3.1 6.1 3.4 7.7c.3 1.6.4 2.9 1 2.9s2.4-.7 2.7-1.6-.8-3.5-2.3-5.4c-1.5-1.9-2.8-4.6-2.8-6.1 0-1.3.9-3.7 1.3-5.7 6.7-.6 11.3-1.8 14.2-2.3s5.8-1.2 8.6-2c2.9-.9 5.6-1.9 8.3-3.2 2.7-1.3 5.3-2.8 7.6-4.8 2.2-2 4.1-4.4 5.8-6.8 1.6-2.2 3-4.5 4.3-6.9h.1l15.4 4.5 2.7 1.1c.9.4 1.8.8 2.6 1.2 1.6.9 3.2 2.1 4.6 3.4l.1.1.6.6.6.9c.4.6.7 1.3.9 1.9.5 1.4.9 2.8 1.1 4.3.4 3 .6 6.1.8 9.2.4 5.8.7 11.7 1.1 17.5-14.5.2-28.8.2-43.1.3zM32.8 203.3c-.3-1.8-1-3.3-1.7-4.7-1.5-2.9-3.2-5.6-5.1-8.2-1-1.3-1.9-2.6-3.1-3.7-1.2-1.1-2.5-2.1-4.1-2.6 1.4.8 2.5 2 3.4 3.2.9 1.2 1.7 2.6 2.6 3.9 1.6 2.7 3.2 5.4 4.6 8.2.7 1.4 1.4 2.8 1.6 4.1.3 1.5.4 3.1.6 4.6.3 3.1.6 6.3 1.1 9.5.4-3.2.5-6.4.4-9.6 0-1.4-.1-3-.3-4.7zm142.4-17.5c-.9.2-1.8.7-2.4 1.4-.6.7-1.1 1.5-1.5 2.2-1.8 2.8-3.6 5.7-5.2 8.7-.4.8-.7 1.6-1.1 2.4-.2.4-.3.8-.4 1.3-.1.4-.2.9-.3 1.3-.2 1.7-.4 3.4-.4 5.1-.1 3.4-.1 6.8.1 10.1.6-3.3 1-6.7 1.5-10 .2-1.6.4-3.3.7-4.9.3-1.5 1-3 1.7-4.4 1.5-3 3.2-5.8 4.7-8.9.4-.8.7-1.5 1.1-2.1.4-.6 1-1 1.7-1.3.7-.3 1.6-.4 2.4-.8.8-.3 1.6-.8 2.2-1.3-.8.4-1.6.6-2.4.8-.7.2-1.5.2-2.4.4z" fill="#000000" stroke-width="none" opacity="1" stroke="none"></path><path id="SvgjsPath8899" d="M173.1 180.5c-3.5-1.5-13.8-3-16.4-4.8 0 0 11.8 6.1 15.9 7.4 4.1 1.3 7.2.9 7.2.9s-3.2-2-6.7-3.5zm-32.6-24.6c0-3.2-2.4-7.4-4.1-9.5s-5.4-3.2-6.9-4.3c0 0 .9.9 2.6 2.8 1.7 1.9 5 6.7 5.6 10.6.6 3.9-2.6 11.3-4.8 14.1s-10.8 7.2-14.8 9.5c-3.9 2.4-7.5 5.6-12.1 8.2s-3 6.9-3 6.9.7-2.6 2.2-4.6 7.3-6.1 11.6-7.4c4.3-1.3 14.3-7.4 18.2-11.1 3.9-3.4 5.5-11.9 5.5-15.2zm3.2 2.2s1.9 3 3.2 4.8c1.3 1.7 2.4 5.9-1.5 12.4s-15 13.2-15 13.2 9.5-4.3 12.6-6.5c3-2.2 8.9-9.5 9.3-11.3.4-1.7-.2-4.8-1.5-6.9-1.2-2.2-6.2-4.8-7.1-5.7zm-59.3 22.6c-3.9-3-11.4-13.2-14.4-17.1-3-3.9-3.2-8-3.5-10.8 0 0-2.4 2.6-2.8 4.8s-.4 5.9 3.2 8.9c3.7 3 17.5 18 22.7 20.4 5.2 2.4 9.3 5.9 9.3 5.9s-1.1-2.6-2.4-3.9c-1.3-1.5-8.2-5.2-12.1-8.2zM60 185.4c3.9 1.5 14.5 6.3 17.3 7.4s15.1 3 15.1 3-11.8-3.9-15.8-5.6c-3.8-1.7-16.6-4.8-16.6-4.8z" fill="#0f0f0f" stroke-width="none" opacity="1" stroke="none"></path></g><g id="svga-group-head" transform="matrix(1,0,0,1,0,0)"><g id="svga-group-ears-left-move" transform="matrix(1,0,0,1,0,0)"><g id="svga-group-ears-left"><path id="SvgjsPath4765" d="M68.53 80.36s-11.15-9.8-12.94-9.96c-1.54-.14-5.36 8.01-7.05 13.16-.45 1.36-.34 2.88.25 4.2 1.62 3.57 5.21 11.04 8.43 14.78 0 0 2.72.59 3.58.33.86-.25 7.58-5.67 8.27-7.77s.83-11.3-.54-14.74z" fill="#f0c7b1" stroke-width="none" opacity="1" stroke="none"></path><path id="SvgjsPath4766" d="M69.49 84.19c.18 1.31.28 2.64.33 3.96.05 1.32.06 2.65-.01 3.98a26.7 26.7 0 0 1-.17 1.99c-.05.34-.1.67-.2 1.02s-.28.7-.46.96c-.72 1.11-1.6 1.95-2.47 2.8-.88.84-1.78 1.63-2.71 2.4-.47.38-.93.75-1.42 1.11-.24.18-.49.35-.74.52l-.4.24c-.16.08-.35.17-.53.19-.67.08-1.23-.01-1.82-.09-.58-.08-1.15-.19-1.73-.32l-.13-.03-.08-.1c-1.45-1.74-2.63-3.68-3.74-5.65-1.1-1.98-2.1-4.03-3.06-6.1l-1.41-3.11c-.5-1.05-.71-2.29-.54-3.46.06-.59.26-1.14.44-1.67.18-.54.37-1.07.56-1.6.4-1.05.79-2.11 1.22-3.15.86-2.07 1.76-4.13 2.94-6.02.3-.47.62-.93 1-1.36.19-.21.4-.42.67-.59.13-.08.3-.16.52-.16.19.01.32.07.47.12 1.06.47 1.87 1.14 2.75 1.76 1.72 1.29 3.37 2.66 5 4.09 1.64 1.41 3.22 2.86 4.81 4.38.49 1.27.72 2.58.91 3.89zM58.4 72.51c-.85-.59-1.75-1.26-2.59-1.61-.09-.02-.2-.08-.26-.08-.04 0-.12.02-.2.07-.17.1-.35.25-.51.44-.34.36-.65.8-.94 1.24-1.16 1.8-2.18 3.77-3.11 5.77-.46 1.01-.92 2.02-1.32 3.06-.2.52-.4 1.04-.59 1.57-.19.53-.38 1.05-.45 1.6-.15 1.11.06 2.27.55 3.26.47 1.03.98 2.05 1.49 3.05 1.02 2.02 2.12 3.99 3.26 5.91 1.15 1.91 2.36 3.79 3.76 5.42l-.21-.13c1.09.2 2.3.43 3.29.33.11-.01.18-.06.28-.11l.35-.22.7-.5c.47-.34.93-.71 1.39-1.08.92-.74 1.81-1.52 2.68-2.34.85-.82 1.73-1.66 2.39-2.61.17-.25.29-.46.38-.72.08-.27.14-.58.19-.89.09-.63.17-1.27.21-1.91.1-1.29.14-2.6.15-3.9.01-1.31-.04-2.62-.15-3.92-.11-1.3-.27-2.62-.66-3.84-3.33-2.62-6.67-5.35-10.08-7.86z" fill="#e1ac8f" stroke-width="none" opacity="1" stroke="none"></path><path id="SvgjsPath4767" d="M68.79 88.66S58.04 75.08 56.02 76.21c-2.01 1.12-5.19 7.53-5.18 9.67.02 3.14 3.34 8.38 5.01 9.96s3.68 2.55 6.35 1.94c2.66-.61 6.59-9.12 6.59-9.12z" fill="#e1ac8f" stroke-width="none" opacity="1" stroke="none"></path><path id="SvgjsPath4768" d="M60.61 88.64c-.45-1.26-.95-2.5-1.45-3.74a49.61 49.61 0 0 0-1.66-3.64c-.61-1.18-1.22-2.36-1.97-3.45l-.08-.12-.08.12c-.75 1.18-1.45 2.38-2.12 3.62-.33.62-.66 1.25-.96 1.89-.31.64-.57 1.31-.84 1.98l-.04.1.04.12c.46 1.41.96 2.79 1.47 4.18.25.69.54 1.37.83 2.05.3.68.59 1.35.99 2.01l.19.31.25-.23c.34-.31.6-.65.87-1.02.26-.37.49-.76.69-1.17.4-.82.63-1.78.6-2.74v-.06l-.02-.04c-.5-.99-1.03-1.96-1.55-2.94l-.05.03c.42 1.01.83 2.03 1.26 3.03-.04.86-.3 1.68-.68 2.41-.33.62-.77 1.17-1.24 1.65-.26-.49-.5-1.02-.73-1.56l-.81-2.03c-.53-1.32-1.03-2.66-1.52-3.99.45-1.3.94-2.59 1.52-3.82.57-1.23 1.22-2.41 1.96-3.51.67 1.04 1.17 2.23 1.68 3.39l1.54 3.67 1.56 3.67c.52 1.22 1.05 2.45 1.6 3.66l.06-.03c-.41-1.27-.85-2.54-1.31-3.8z" fill="#c27b55" stroke-width="none" opacity="1" stroke="none"></path></g></g><g id="svga-group-ears-right-move" transform="matrix(1,0,0,1,0,0)"><g id="svga-group-ears-right"><path id="SvgjsPath4769" d="M131.47 80.36s11.15-9.8 12.94-9.96c1.54-.14 5.36 8.01 7.05 13.16.45 1.36.34 2.88-.25 4.2-1.62 3.57-5.21 11.04-8.43 14.78 0 0-2.72.59-3.58.33-.86-.25-7.58-5.67-8.27-7.77s-.83-11.3.54-14.74z" fill="#f0c7b1" stroke-width="none" opacity="1" stroke="none"></path><path id="SvgjsPath4770" d="M131.44 80.33c1.58-1.52 3.17-2.97 4.81-4.38 1.62-1.42 3.28-2.8 5-4.09.88-.63 1.69-1.29 2.75-1.76.16-.04.28-.11.47-.12.21 0 .38.08.52.16.28.17.49.37.67.59.38.43.7.89 1 1.36 1.18 1.89 2.07 3.96 2.94 6.02.43 1.04.82 2.09 1.22 3.15.19.53.38 1.06.56 1.6.18.53.37 1.08.44 1.67.17 1.17-.04 2.41-.54 3.46l-1.41 3.11c-.97 2.06-1.96 4.11-3.06 6.1-1.11 1.98-2.29 3.92-3.74 5.65l-.08.1-.13.03c-.58.13-1.15.23-1.73.32-.59.07-1.16.16-1.82.09-.18-.02-.37-.11-.53-.19l-.4-.24c-.25-.17-.5-.34-.74-.52-.48-.36-.95-.73-1.42-1.11-.93-.76-1.83-1.56-2.71-2.4-.87-.86-1.75-1.69-2.47-2.8a3.42 3.42 0 0 1-.46-.96c-.1-.35-.14-.69-.2-1.02-.08-.67-.14-1.33-.17-1.99-.07-1.33-.07-2.65-.01-3.98.06-1.32.15-2.65.33-3.96.17-1.34.4-2.65.91-3.89zm.06.06c-.4 1.21-.56 2.54-.66 3.84-.1 1.3-.15 2.61-.15 3.92.01 1.31.06 2.61.15 3.9.05.65.12 1.29.21 1.91.06.31.11.62.19.89.09.26.2.47.38.72.66.94 1.54 1.79 2.39 2.61.86.81 1.76 1.59 2.68 2.34.46.37.92.73 1.39 1.08l.7.5.35.22c.1.05.17.1.28.11.99.1 2.2-.13 3.29-.33l-.21.13c1.4-1.63 2.61-3.51 3.76-5.42 1.14-1.92 2.24-3.89 3.26-5.91.51-1.01 1.02-2.02 1.49-3.05.49-.99.7-2.15.55-3.26-.07-.56-.26-1.07-.45-1.6s-.38-1.05-.59-1.57c-.4-1.04-.86-2.06-1.32-3.06-.93-2.01-1.95-3.97-3.11-5.77-.29-.44-.6-.88-.94-1.24-.17-.18-.35-.34-.51-.44a.431.431 0 0 0-.2-.07c-.06 0-.17.06-.26.08-.84.35-1.74 1.02-2.59 1.61-3.39 2.49-6.73 5.22-10.08 7.86z" fill="#e1ac8f" stroke-width="none" opacity="1" stroke="none"></path><path id="SvgjsPath4771" d="M131.21 88.66s10.75-13.58 12.77-12.45c2.01 1.12 5.19 7.53 5.18 9.67-.02 3.14-3.34 8.38-5.01 9.96s-3.68 2.55-6.35 1.94c-2.66-.61-6.59-9.12-6.59-9.12z" fill="#e1ac8f" stroke-width="none" opacity="1" stroke="none"></path><path id="SvgjsPath4772" d="M148.54 85.31c-.26-.67-.52-1.34-.84-1.98-.3-.64-.62-1.27-.96-1.89-.67-1.24-1.38-2.44-2.12-3.62l-.08-.12-.08.12c-.74 1.1-1.36 2.27-1.97 3.45-.6 1.18-1.14 2.4-1.66 3.64-.49 1.24-1 2.48-1.45 3.74-.46 1.26-.9 2.53-1.28 3.81l.06.03c.55-1.21 1.07-2.44 1.6-3.66l1.56-3.67 1.54-3.67c.51-1.16 1.01-2.35 1.68-3.39.74 1.1 1.39 2.29 1.96 3.51.58 1.24 1.08 2.52 1.52 3.82-.5 1.34-.99 2.67-1.52 3.99l-.81 2.03c-.23.53-.47 1.07-.73 1.56-.47-.48-.91-1.03-1.24-1.65-.39-.73-.64-1.55-.68-2.41.43-1 .84-2.02 1.26-3.03l-.05-.03c-.52.98-1.05 1.95-1.55 2.94l-.02.04v.06c-.03.96.2 1.92.6 2.74.2.41.43.81.69 1.17.26.36.53.71.87 1.02l.25.23.19-.31c.4-.67.69-1.34.99-2.01.29-.68.57-1.36.83-2.05.51-1.38 1.01-2.77 1.47-4.18l.04-.12-.07-.11z" fill="#c27b55" stroke-width="none" opacity="1" stroke="none"></path></g></g><g id="svga-group-faceshape-wrap"><g id="svga-group-faceshape-single"><path id="SvgjsPath4847" d="M140.4 54.9c-2.2-10-6.3-16-15.2-20.8-9.3-5-25.2-4.8-25.2-4.8s-15.9-.2-25.2 4.8c-8.8 4.8-13 10.8-15.2 20.8-.9 4 0 13.6 0 13.6S62 90.8 62 97.3s-.8 25.8.6 27.9c1.4 2.1 23.7 23.4 26.7 25.1 3 1.6 18.4 1.6 21.4 0s25.3-23 26.7-25.1c1.4-2.1.6-21.4.6-27.9s2.3-28.9 2.3-28.9 1-9.5.1-13.5z" fill="#f0c7b1" stroke-width="none" opacity="1" stroke="none"></path><path id="SvgjsPath4848" d="M140.4 54.9c-2.2-10-6.3-16-15.2-20.8-9.3-5-25.2-4.8-25.2-4.8s-15.9-.2-25.2 4.8c-8.8 4.8-13 10.8-15.2 20.8-.9 4 0 13.6 0 13.6S62 90.8 62 97.3s-.8 25.8.6 27.9c1.4 2.1 23.7 23.4 26.7 25.1 3 1.6 18.4 1.6 21.4 0s25.3-23 26.7-25.1c1.4-2.1.6-21.4.6-27.9s2.3-28.9 2.3-28.9 1-9.5.1-13.5zm0 10.1c-.1 1.1-.2 2.3-.3 3.4-.8 6.8-1.6 13.6-2.3 20.4-.2 1.7-.3 3.4-.5 5.1-.1 1.7-.2 3.5-.2 5.2V114.4c0 1.7-.1 3.4-.1 5.1 0 .8-.1 1.7-.2 2.5 0 .4-.1.8-.1 1.2 0 .4-.1.8-.2 1.1l-.1.2-.3.4-.8.9-1.8 1.8c-2.4 2.4-4.9 4.8-7.3 7.1-2.5 2.3-4.9 4.7-7.4 7-1.2 1.2-2.5 2.3-3.8 3.4-1.3 1.1-4.41 3.72-4.75 3.97-.21.15-.45.26-.7.32-.61.15-1.86.44-2.45.51-1.6.2-3.3.3-5 .4-1.7.1-3.4.1-5 0-1.7-.1-5.7-.5-6.1-.6s-1.32-.32-1.8-.8l-1-.8c-1.3-1.1-2.6-2.2-3.8-3.3-2.5-2.2-5.1-4.5-7.6-6.9-2.5-2.3-5-4.6-7.5-7-1.2-1.2-2.5-2.3-3.7-3.5l-.9-.9-.9-.9c-.2-.2-.85-.55-1.05-1.81-.1-.8-.15-1.59-.25-2.49-.1-.8-.1-1.7-.1-2.5-.1-1.7-.1-3.4-.1-5.1V98.4c0-1.7-.1-3.4-.2-5.1-.5-6.8-1.1-13.6-1.7-20.4l-.1-2.9c-.1-.9-.2-1.7-.2-2.5-.1-1.7-.2-3.4-.2-5.1 0-1.7 0-3.4.1-5 .1-.8.2-1.6.4-2.4.2-.8 2.3-6.8 2.5-7.1.7-1.5 1.5-2.9 2.5-4.3 1-1.3 2.1-2.5 3.3-3.7 1.2-1.1 2.5-2.1 3.9-3s2.9-1.7 4.3-2.4c.4-.2 2.2-.9 2.2-.9s2-.7 2.4-.8c3.2-.9 6.5-1.5 9.9-1.9 3.3-.4 6.7-.6 10.1-.6 1.7 0 3.4.1 5.1.2.8 0 1.7.1 2.5.2s1.7.2 2.5.3c3.3.4 6.7 1 9.9 2.1 1.6.6 3.1 1.2 4.6 2 .4.2.7.4 1.1.6l1.1.7c.7.5 1.4.9 2.1 1.4 2.7 2 5 4.6 6.6 7.6.8 1.5 1.5 3.1 2 4.7.6 1.6.9 3.29 1.3 4.89.2 1.1.31 2.5.31 3.7 0 1.11-.11 5.21-.21 6.31z" fill="#c27b55" stroke-width="none" opacity="1" stroke="none"></path></g></g><g id="svga-group-mouth-single-move" transform="matrix(1,0,0,1,0,0)"><g id="svga-group-mouth-single"><path id="SvgjsPath5404" d="M81.92 117.96s.27 1.88 3.14 5.11 7.53 10.04 8.79 10.67 14.26.99 14.88.99c.63 0 3.68-6.81 4.3-8.88.63-2.06 2.24-6.37 2.06-6.99 0 0-4.66 1.26-7.53 2.06-2.87.81-8.34 1.52-9.24 1.52-.79 0-9.76-2.06-16.4-4.48z" fill="#000000" stroke-width="none" opacity="1"></path><path id="SvgjsPath5405" d="M107.66 120.83c-2.87.81-8.34 1.52-9.24 1.52s-9.86-1.97-16.5-4.39c0 0 .27 1.88 3.14 5.11.72.81 1.61 1.88 2.51 3.05 2.51.63 6.64 1.61 8.88 1.97 0 0 .45-1.26.63-1.34.18-.09.18 1.43.18 1.43s4.12.9 6.55.72c0 0 .63-.45 1.43-.09 0 0 3.95-.54 7.26-1.17.27-.72.54-1.34.63-1.7.63-2.06 2.24-6.37 2.06-6.99 0-.1-4.66 1.07-7.53 1.88z" fill="#ffffff" stroke-width="none" opacity="1"></path><path id="SvgjsPath5406" d="M116.89 118.41c-.54-.54-1.26-1.17-2.24-1.17-.36 0-.54.18-.36.36.09.09.18.27.27.36-2.42.72-4.84 1.34-7.35 1.88-2.78.63-6.01 1.79-8.97 1.79-2.6 0-5.65-.99-8.16-1.61-2.42-.63-4.84-1.43-7.26-2.24.18-.09.36-.09.54-.18.36-.18.45-.54-.09-.63-.72-.18-1.43.09-1.97.36s-.99.72-.72 1.26c.09.18.36.18.54.18.09 0 .09 0 .18-.09.45 1.88 2.51 3.68 3.77 5.38 1.97 2.51 4.03 5.02 5.83 7.62.63.9 1.17 2.24 2.24 2.87.9.54 2.24.54 3.41.63 4.03.27 8.07.45 12.19.45.54 0 .9-.18 1.08-.45 2.87-5.02 4.75-10.31 6.1-15.69.18.36.36.72.81.99.27.18.72.18.9-.09.43-.73-.29-1.54-.74-1.98zm-8.69 15.6c-2.96 0-5.83-.09-8.79-.27-1.34-.09-3.77 0-4.84-.54-.99-.54-1.97-2.15-2.69-2.87-1.7-1.97-3.32-3.95-4.93-5.92-1.43-1.7-3.86-3.95-4.39-5.92 2.24.99 4.66 1.79 7.17 2.51 2.69.81 6.01 1.88 8.88 2.15 2.6.27 5.92-.9 8.25-1.52 2.69-.72 5.38-1.61 7.89-2.6-1.35 5.2-3.68 10.22-6.55 14.98z" fill="#da7c87" stroke-width="none" opacity="1" stroke="none"></path><path id="SvgjsPath5407" d="M116.36 115.54c-.27-.09-.63.09-.36.27.81.54 1.61 1.08 2.24 1.7s.9 1.26 1.43 1.88c.09.18.54.09.54-.09-.09-1.43-1.97-3.05-3.85-3.76z" fill="#e8b9a0" stroke-width="none" opacity="1" stroke="none"></path></g></g><g id="svga-group-eyes-left-move" transform="matrix(1,0,0,1,0,0)"><g id="svga-group-eyes-left"><g id="svga-group-eyesback-left"><path id="SvgjsPath6334" d="M80.2 74.2c7.5 0 13.5 5.8 13.5 13s-6 13-13.5 13-13.5-5.8-13.5-13 6-13 13.5-13z" fill="#ffffff" stroke-width="none" opacity="1"></path></g><g id="svga-group-eyesiriswrapper-left" transform="matrix(1,0,0,1,0,0)"><g id="svga-group-eyesiriscontrol-left" transform="matrix(1,0,0,1,0,0)"><g id="svga-group-eyesiris-left"><path id="SvgjsPath6551" d="M80.2 81.6c3.1 0 5.6 2.5 5.6 5.6s-2.5 5.6-5.6 5.6-5.6-2.5-5.6-5.6 2.5-5.6 5.6-5.6z" fill="#7b5c33" stroke-width="none" opacity="1" stroke="none"></path><path id="SvgjsPath6552" d="M80.2 83.3c2.2 0 3.9 1.7 3.9 3.9s-1.7 3.9-3.9 3.9-3.9-1.7-3.9-3.9 1.7-3.9 3.9-3.9z" fill="#000000" stroke-width="none" opacity="1"></path><path id="SvgjsPath6553" d="m76.1 84.6 4.4 3.1-1.8-5.1c-.3-.4-2.5.8-2.6 2z" fill="#ffffff" stroke-width="none" opacity="1"></path></g></g></g><g id="svga-group-eyesfront-left"><path id="SvgjsPath6342" d="M80.2 73.7c-7.8 0-14.1 6.1-14.1 13.6s6.3 13.6 14.1 13.6 14.1-6.1 14.1-13.6S88 73.7 80.2 73.7zm-4.1 22.5c-3.5 1.1-7-2.2-7.9-4.1-.9-1.8 1.2-5.9 3.2-6.9 2-1.1 14.6-1.2 19.4-2.2 1-.2.9 5.6-.2 6.8s-7.2 4-14.5 6.4z" fill="#f0c7b1" stroke-width="none" opacity="1"></path><path id="SvgjsPath6343" d="m93.4 81.2-1.8.6.8-2.4c-1.9.8-6.5.8-9.9 1.2-3.4.5-12.3 3.1-12.6 4.1-.2.5.1.7.4.8-.1.1-.1.1-.2.1-.5.5-.8 1-1.2 1.5-.7 1.1-1.2 2.3-1.2 3.6 0 .3 0 .7.1 1 .1.3.3.6.5.9.4.5.8 1 1.3 1.4.9.9 2 1.6 3.2 2 .6.2 1.2.3 1.9.3.6 0 1.3-.2 1.9-.4 2.4-.8 4.8-1.6 7.1-2.5 1.2-.5 2.3-1 3.4-1.6 1.1-.6 2.2-1.2 3.3-2 .1-.1.2-.2.3-.4.1-.1.2-.3.2-.4l.3-.9c.1-.6.2-1.3.2-1.9v-1.9c0-.3-.1-.6-.2-.9 0-.2-.1-.3-.2-.4 1.5-.5 2.4-1.8 2.4-1.8zm-2.1 2.4c.1.3.1.6.1.9v1.9l-.3 1.8c-.2.6-.3 1.2-.8 1.6-.5.4-1 .7-1.6 1s-1.1.6-1.7.8c-1.1.5-2.3 1.1-3.4 1.6-2.3 1-4.6 1.9-7 2.7-.6.2-1.2.4-1.8.4-.6 0-1.2-.1-1.8-.3-1.2-.4-2.2-1.1-3.1-2-.4-.4-.8-.9-1.2-1.4-.2-.3-.3-.5-.4-.8-.1-.3-.1-.6-.1-.9.1-1.2.6-2.4 1.3-3.4.3-.5.7-1 1.1-1.4.1-.1.3-.2.4-.4.1 0 18.3-1.9 19.8-2.4.1 0 .2-.1.3-.1.1.1.1.2.2.4z" fill="#000000" stroke-width="none" opacity="1"></path></g></g></g><g id="svga-group-eyes-right-move" transform="matrix(1,0,0,1,0,0)"><g id="svga-group-eyes-right"><g id="svga-group-eyesback-right"><path id="SvgjsPath6335" d="M119.8 74.2c7.5 0 13.5 5.8 13.5 13s-6 13-13.5 13-13.5-5.8-13.5-13 6-13 13.5-13z" fill="#ffffff" stroke-width="none" opacity="1"></path></g><g id="svga-group-eyesiriswrapper-right" transform="matrix(1,0,0,1,0,0)"><g id="svga-group-eyesiriscontrol-right" transform="matrix(1,0,0,1,0,0)"><g id="svga-group-eyesiris-right"><path id="SvgjsPath6554" d="M119.8 82.3c2.7 0 4.9 2.2 4.9 4.9s-2.2 4.9-4.9 4.9-4.9-2.2-4.9-4.9 2.2-4.9 4.9-4.9z" fill="#7b5c33" stroke-width="none" opacity="1" stroke="none"></path><path id="SvgjsPath6555" d="M119.8 83.8c1.9 0 3.4 1.5 3.4 3.4s-1.5 3.4-3.4 3.4-3.4-1.5-3.4-3.4 1.5-3.4 3.4-3.4z" fill="#000000" stroke-width="none" opacity="1"></path><path id="SvgjsPath6556" d="m116.2 84.9 3.8 2.7-1.5-4.5c-.2-.3-2.2.8-2.3 1.8z" fill="#ffffff" stroke-width="none" opacity="1"></path></g></g></g><g id="svga-group-eyesfront-right"><path id="SvgjsPath6344" d="M119.8 73.7c-7.8 0-14.1 6.1-14.1 13.6s6.3 13.6 14.1 13.6 14.1-6.1 14.1-13.6-6.3-13.6-14.1-13.6zm4 20.5c-1.9-.8-12.4-4.4-13.4-5.6-1-1.1-1.2-5.3-.2-5.1 4.6 1 16.5 1.1 18.4 2.2 1.9 1 3.9 4.9 3 6.7-.9 1.8-5.9 2.5-7.8 1.8z" fill="#f0c7b1" stroke-width="none" opacity="1"></path><path id="SvgjsPath6347" d="M131.8 90c-.3-1.2-.9-2.2-1.6-3.2-.2-.3-.4-.5-.7-.8.3-.1.5-.3.4-.7-.3-.8-8.2-1.7-11.4-2.1s-7.6-.4-9.4-1.1l.3.7-1.7-.5s.9 1 2 1.6c0 0 0 .1-.1.1-.1.3-.1.6-.1.9 0 .6 0 1.2.1 1.8.1.6.2 1.2.5 1.7.1.3.4.5.6.7.2.2.5.3.8.4 2.1 1.1 4.2 1.9 6.3 2.7l6.5 2.3c1.1.2 2.3.2 3.4 0s2.3-.5 3.3-1.1c.2-.2.5-.4.7-.6.2-.3.3-.6.3-.9.1-.7 0-1.3-.2-1.9zm-.4 2.5c-.1.2-.3.4-.6.6-.9.6-2 1-3.1 1.2-1.1.2-2.3.3-3.4 0s-2.1-.8-3.2-1.2l-3.2-1.3c-1.1-.4-2.1-.8-3.2-1.3-1.1-.4-2.1-.8-3.1-1.3-.2-.1-.5-.2-.8-.4-.2-.1-.4-.3-.6-.5-.3-.5-.4-1-.6-1.6s-.2-1.1-.2-1.7c0-.3 0-.6.1-.8v-.1c.1.1.2.1.4.2 5.5 2.1 18.3 2 18.8 2 .4.3.7.6 1 .9.7.9 1.2 1.9 1.6 3 .1.5.2 1.1.2 1.6.1.2 0 .4-.1.7z" fill="#000000" stroke-width="none" opacity="1"></path></g></g></g><g id="svga-group-facehighlight-single"></g><g id="svga-group-eyebrows-left-move" transform="matrix(1,0,0,1,0,0)"><g id="svga-group-eyebrows-left-rotate" transform="matrix(1,1.7453292519943295e-9,-1.7453292519943295e-9,1,1.2391838311032188e-7,-1.3753196981269866e-7)"><g id="svga-group-eyebrows-left"><path id="SvgjsPath4733" d="M92.8 69.5s-.2 3.9-1 7.1c0 0-16.1-4.6-18-4.8-1.9-.2-8.4 4.1-8.4 4.1l6.5-9.8 3.8.3-.6-.9 8 1.9 7.5 1.2.5 2.8.4-2.8.5 2.8.8-1.9z" fill="#2a232b" stroke-width="none" opacity="1" stroke="none"></path><path id="SvgjsPath4734" d="m92.8 69.5-.1.1c-.1.3-.2.5-.4.8-.1.2-.2.4-.3.7l-.4-2.5-.2-.9-.2.9-.3 1.6-.3-1.6v-.2h-.2l-3.9-.7-1.9-.3c-.6-.1-1.3-.2-1.9-.3-2.6-.6-5.1-1.2-7.7-1.8l-.8-.2.5.8.3.1-3.1-.2h-.2l-.1.1c-1.1 1.7-2.1 3.3-3.2 5l-3.2 5-.4.6.6-.4c1.9-1.3 3.9-2.5 6-3.4.5-.2 1.1-.4 1.6-.6.3-.1.5-.1.8-.1l.4.1.4.1c1.1.3 2.3.6 3.4.9 2.3.7 4.5 1.3 6.8 1.9 2.3.6 4.5 1.2 6.8 1.8l.2.1v-.2c.3-1.2.4-2.4.6-3.6.1-.6.1-1.2.2-1.8 0-.3 0-.6.1-.9V69.6l.1-.1c0 .1 0 0 0 0zm-.1.4-.1.4-.1.9-.3 1.8c-.2 1.1-.4 2.2-.7 3.3-2.2-.7-4.4-1.3-6.6-2-2.3-.7-4.5-1.3-6.8-1.8-1.1-.3-2.3-.5-3.4-.8l-.4-.1-.4-.1c-.3 0-.6 0-.9.1-.6.2-1.1.4-1.6.6-1.9.9-3.7 1.9-5.5 3.1l2.9-4.2c1.1-1.6 2.2-3.2 3.2-4.7l3.6.3.7.1-.4-.7-.1-.1c2.3.6 4.6 1.1 6.9 1.6l3.9.6 3.7.5.5 2.5.2 1.2.2-1.2.3-2 .4 1.9.1.3.1-.3.3-.9c.1-.3.2-.6.3-.8v.5zm-2.9 4.7c0-.8-.1-1.7-.2-2.5-.1-.4-.1-.8-.2-1.2s-.2-.8-.4-1.2c.1.4.1.8.1 1.2 0 .4.1.8.2 1.2.1.8.3 1.7.5 2.5zm-1.2-1.7c-.2-.3-.3-.7-.5-1l-.5-1-1-1.9-.2-.5v.6c0 1.6 0 3.2.1 4.8l.3-.1c-.3-.4-.6-.9-.9-1.3l-.9-1.2c-.3-.4-.6-.8-1-1.2-.3-.4-.7-.8-1.1-1.1.3.4.7.8 1 1.2l.9 1.2c.3.4.6.8.9 1.3.3.4.6.9.8 1.3l.3.5v-.6c0-1.6-.1-3.2-.1-4.8l-.2.1 1.1 1.9.6.9c0 .3.2.6.4.9z" fill="#1b141c" stroke-width="none" opacity="1" stroke="none"></path></g></g></g><g id="svga-group-eyebrows-right-move" transform="matrix(1,0,0,1,0,0)"><g id="svga-group-eyebrows-right-rotate" transform="matrix(1,1.7453292519943295e-9,-1.7453292519943295e-9,1,1.2705996255135688e-7,-2.123193070246998e-7)"><g id="svga-group-eyebrows-right"><path id="SvgjsPath4735" d="M107.2 73.2s.9 3.1 2.3 5.5c0 0 14.9-6.1 16.8-6.5 1.9-.4 9 2 9 2l-8.2-6.9-3.6.8.4-.8-7.5 2.7-7.1 2v2.3l-.9-2.2v2.3l-1.2-1.2z" fill="#2a232b" stroke-width="none" opacity="1" stroke="none"></path><path id="SvgjsPath4736" d="m135.4 74.1-4-3.5c-1.3-1.2-2.7-2.3-4.1-3.5l-.1-.1h-.1l-3 .6.1-.2.4-.7-.8.3c-2.4.8-4.8 1.7-7.2 2.6l-1.8.6-1.8.6-3.7 1.1h-.2v1.5l-.6-1.3-.3-.7v.7l.1 2c-.1-.2-.3-.3-.4-.5-.2-.2-.3-.4-.5-.6l-.1-.1V73.2l.1.2.1.4c.1.2.2.5.2.7.2.5.3.9.5 1.4.3.9.8 1.9 1.2 2.8l.1.2.2-.1c2.1-.8 4.2-1.6 6.4-2.5 2.1-.8 4.2-1.7 6.3-2.5 1.1-.4 2.1-.8 3.2-1.2l.4-.1.4-.1c.3-.1.5-.1.8-.1.6 0 1.1.1 1.7.2 2.2.4 4.4 1.1 6.6 1.8l.6.2-.7-.4zm-8.3-2.1c-.3 0-.6 0-.9.1l-.4.1-.4.1c-1.1.3-2.2.7-3.2 1.1-2.2.8-4.3 1.6-6.4 2.4-2.1.8-4.1 1.7-6.1 2.6-.5-.8-.9-1.7-1.2-2.5-.2-.4-.4-.9-.6-1.4l-.3-.7-.1-.3-.1-.2v-.1c.2.2.3.4.4.6.2.2.3.4.5.7l.2.2V72.8l.6 1.5.4.9v-3.1l3.6-1c1.2-.3 2.5-.7 3.7-1 2.2-.8 4.3-1.5 6.5-2.3v.1l-.3.6.7-.2 3.5-.8c1.3 1.1 2.7 2.2 4 3.3l3.6 2.9c-2-.6-3.9-1.2-6-1.6-.6.1-1.1 0-1.7-.1zm-16 4.7c-.2-.7-.2-1.3-.2-2v-1c0-.3 0-.7.2-1 0 .3.1.7.1 1s.1.7.1 1c-.1.7-.1 1.4-.2 2zm.9-1.5c.1-.3.2-.6.3-.8l.3-.8.6-1.7.2-.4.1.4c.3 1.3.5 2.6.8 3.8h-.3l.6-1.2c.2-.4.4-.8.7-1.1.2-.4.5-.7.7-1.1s.5-.7.8-1c-.3.3-.5.7-.7 1.1-.2.4-.4.7-.7 1.1l-.6 1.2-.6 1.2-.2.4-.1-.4c-.3-1.3-.5-2.6-.8-3.8h.3l-.7 1.6-.4.8c0 .2-.1.4-.3.7z" fill="#1b141c" stroke-width="none" opacity="1" stroke="none"></path></g></g></g><g id="svga-group-beardwrap"><g id="svga-group-beard-single-move" transform="matrix(1,0,0,1,0,0)"><g id="svga-group-beard-single"><path id="SvgjsPath8727" d="M143.3 91.1c-.8-5.4-2.8-8.6-5.4-8.4-2.6.2-2.8 3.5-3 10.8-.7 5.9-1.6 11.1-3.8 14.9s-3.4 8.8-6.3 8.7c-2-.1-.7-3.1-6-4.8-4.5-1.4-7.6.5-11.8 1.7-5.5 1.6-3 1.4-7.3 1.7-.4 0-3.5-.4-8.8-2.3s-13.3-4.1-13.8 3.1c-.5 7.2-9.1-6.7-10.1-14.6S64.6 88.8 63.6 86c-1-2.8-4-4-5.2-1.7s-2.8 14.1-2.8 25.6c0 11.4 1.7 18.1 3.5 23.5 1.8 5.4 23.5 21.9 27.7 25.4s23.7 2.8 28.1 1.2c4.4-1.6 22.9-18.4 25.9-22.7 5.8-8.2 3.3-40.7 2.5-46.2zm-28.7 41.8c-2.7 4.8-5 7.5-6.4 8.3-1.5.8-4.2 1.1-5-.1s-.4-3.9-.4-3.9c-2.3 0-6.2-.4-6.2-.4s.3 1.7-.2 3.5-3.8 1.8-6.1 0-6.8-8.9-8.8-12.7-3.3-8.1-1.5-9.2 4.2 1.3 9.1 2.4 10 0 10 0c5.6 1.2 10-.1 12.7-.6 4.1-.8 7.2-3.9 8.3-2s-2.7 10-5.5 14.7z" fill="#2a232b" stroke-width="none" opacity="1"></path><path id="SvgjsPath8728" d="M144.7 111.3c-.1-6.7-.4-13.5-1.3-20.1-.3-1.9-.7-3.8-1.6-5.5-.4-.8-1-1.7-1.7-2.3-.8-.6-1.8-.9-2.8-.6-1 .3-1.5 1.3-1.8 2.2-.3.9-.4 1.9-.5 2.8-.2 1.9-.2 3.8-.3 5.7-.4 3.3-.9 6.7-1.8 9.9-.5 1.6-1.1 3.2-1.9 4.6-.9 1.4-1.6 3-2.3 4.5-.4.8-.7 1.5-1.2 2.2-.4.7-.9 1.3-1.6 1.7-.3.2-.7.3-1 .3-.4 0-.7 0-.9-.3-.4-.5-.7-1.4-1.3-2.1-1.1-1.4-2.8-2.2-4.5-2.7-1.7-.5-3.5-.5-5.2-.1-1.7.4-3.3 1-4.9 1.5-1.6.5-3.2 1-4.8 1.6-.4.1-.8.3-1.1.3-.4.1-.8.1-1.2.1l-1.3.1c-.3 0-.8-.1-1.2-.1-1.6-.3-3.2-.7-4.8-1.2-1.6-.5-3.2-1.1-4.8-1.6-1.6-.5-3.3-.9-5-1.1-.4 0-.9-.1-1.3-.1s-.9 0-1.3.1c-.4 0-.9.2-1.3.3-.4.2-.8.3-1.2.6-.8.5-1.3 1.3-1.7 2.1-.1.4-.3.8-.4 1.3-.1.4-.1.9-.2 1.3-.1.8-.3 1.7-1 1.4-.7-.2-1.3-.8-1.8-1.4-1.1-1.2-2-2.7-2.8-4.1-1.6-2.9-3-6-3.7-9.3-.3-1.6-.5-3.3-.8-5-.3-1.7-.6-3.3-.9-5s-.8-3.3-1.2-4.9c-.2-.8-.5-1.6-.7-2.4-.3-.8-.7-1.6-1.4-2.2-.6-.6-1.5-1-2.4-.9-.5.1-.9.3-1.2.6-.3.3-.5.7-.7 1.1-.6 1.6-.8 3.3-1.1 4.9-.5 3.3-.9 6.7-1.2 10-.5 6.7-.7 13.5 0 20.2.3 3.4 1 6.7 1.8 10 .2.8.5 1.6.7 2.4l.4 1.2.5.7.3.6c.9 1.5 2.1 2.8 3.2 4 2.3 2.5 4.9 4.7 7.4 6.9s5.1 4.4 7.7 6.5c2.6 2.1 5.2 4.2 7.9 6.3.3.3.6.5 1 .8.4.2.8.5 1.2.7.4.2.8.3 1.2.5l1.2.3c1.7.4 3.4.6 5.1.8 3.4.3 6.8.3 10.2.2 1.7-.1 3.4-.2 5.1-.4.8-.1 1.7-.2 2.5-.4s1.7-.3 2.5-.7c1.6-.8 2.9-1.8 4.3-2.8 1.3-1 2.7-2.1 4-3.2 2.6-2.2 5.1-4.4 7.6-6.7s4.9-4.6 7.2-7.1c.6-.6 1.1-1.2 1.7-1.9.3-.3.5-.7.8-1 .2-.4.5-.7.7-1.1.8-1.6 1.2-3.2 1.6-4.9.7-3.3 1-6.7 1.1-10.1.2-3.3.2-6.7.2-10zm-.6 10c-.2 3.3-.6 6.7-1.3 10-.4 1.6-.9 3.2-1.6 4.7-.7 1.4-2 2.6-3.1 3.8-2.3 2.4-4.8 4.7-7.2 7s-5 4.5-7.6 6.6c-1.3 1.1-2.6 2.1-3.9 3.1-1.3 1-2.7 2-4.1 2.7-1.4.6-3.1.8-4.8 1-1.7.2-3.3.3-5 .4-3.3.1-6.7.1-10-.2-1.7-.1-3.3-.4-4.9-.7l-1.2-.3c-.4-.1-.7-.3-1.1-.4-.4-.1-.7-.4-1-.6-.3-.2-.7-.5-1-.8-2.7-2.1-5.3-4.1-7.9-6.3-5.2-4.2-10.4-8.5-15.1-13.3-1.2-1.2-2.3-2.4-3.2-3.8l-.3-.5-.2-.5-.4-1.2c-.3-.8-.5-1.6-.7-2.4-.9-3.2-1.5-6.5-1.9-9.8-.8-6.7-.7-13.4-.2-20.1.2-3.3.6-6.7 1.1-10 .3-1.7.5-3.3 1.1-4.9.2-.8.8-1.4 1.6-1.5.8-.1 1.6.3 2.2.8 1.2 1.1 1.5 2.9 2 4.4.4 1.6.8 3.2 1.2 4.9.3 1.6.6 3.3.9 5 .3 1.7.4 3.3.8 5 .8 3.3 2.1 6.4 3.7 9.4.8 1.5 1.7 2.9 2.8 4.2.6.6 1.1 1.3 2.1 1.7.2.1.5.1.8 0l.3-.3c.1-.1.2-.2.2-.3.2-.4.3-.9.4-1.3.1-.4.1-.8.2-1.2 0-.4.2-.8.3-1.1.3-.7.8-1.4 1.5-1.8.3-.2.7-.3 1.1-.5.4-.1.8-.2 1.2-.2.4-.1.8-.1 1.2-.1.4 0 .8 0 1.2.1 1.6.2 3.2.6 4.8 1.1 1.6.5 3.2 1.2 4.8 1.7 1.6.5 3.2 1 4.9 1.3.4.1.8.2 1.3.1l1.3-.1c.4 0 .8-.1 1.3-.1.5-.1.9-.2 1.3-.4 1.6-.6 3.2-1 4.8-1.5 1.6-.5 3.2-1.2 4.8-1.5 1.6-.4 3.2-.4 4.8.1 1.6.4 3.1 1.1 4.1 2.3.2.3.4.6.7 1 .2.4.4.8.7 1.2.4.4 1 .6 1.4.5.5 0 .9-.2 1.3-.4.8-.5 1.3-1.3 1.8-2 .4-.7.8-1.5 1.2-2.3.7-1.5 1.4-3.1 2.2-4.5.8-1.5 1.4-3.1 1.8-4.8.9-3.3 1.3-6.6 1.7-10 0-1.9.1-3.8.2-5.7.1-.9.2-1.9.5-2.8.2-.9.8-1.8 1.7-2.1.9-.3 1.9 0 2.6.6.8.6 1.3 1.4 1.7 2.2.9 1.7 1.3 3.6 1.6 5.5.4 3.3.6 6.7.8 10.1.2 3.4.3 6.7.3 10.1-.3 3-.4 6.4-.6 9.7zm-23.5-2.5c0-.2-.1-.5-.2-.7-.2-.2-.3-.4-.5-.5-.4-.3-.9-.3-1.2-.2-1.1-.2-2.1-.4-3-.7-.9-.3-1.8-.8-2.7-1.4.5 1 1.4 1.8 2.4 2.2.7.3 1.5.4 2.3.3-.1.1-.3.1-.4.2-1.5.6-2.9 1.3-4.3 1.8-.7.2-1.5.4-2.2.5-.4.1-.9.2-1.3.3-.8-.3-1.6-.7-2.3-1.1-.9-.6-1.6-1.3-2.4-2.2.2 1.1 1 2.1 2 2.8.5.3 1.1.6 1.7.7-3 .6-6.2.6-9.2-.1h-.2c-.3.1-.5.1-.8.1.7-.3 1.2-.9 1.7-1.5.6-.8 1-1.9.9-2.9-.5.9-.9 1.7-1.5 2.4-.5.7-1.1 1.3-1.7 2-1.8.3-3.6.4-5.3.3.9-.2 1.8-.7 2.6-1.3.9-.8 1.7-1.9 2-3.1-.8.9-1.6 1.8-2.5 2.5-.8.7-1.7 1.2-2.7 1.8-1.2-.1-2.3-.3-3.5-.6 1.1-.1 2.2-.6 3.2-1.2 1.2-.7 2.2-1.8 2.8-3-1.1.9-2.1 1.7-3.2 2.4-1 .6-2.1 1.2-3.2 1.7-.8-.2-1.5-.5-2.2-.8-1.1-.4-2.1-.9-3.3-1.3-.4-.1-.9-.2-1.3-.2.7-.3 1.3-.7 1.8-1.2.8-.7 1.4-1.5 1.7-2.5-.8.7-1.5 1.3-2.2 2-.7.6-1.4 1.2-2 1.8-.6.2-1.1.7-1.2 1.2-.4 1.3-.1 2.4.2 3.6.3 1.1.8 2.2 1.2 3.3 1 2.1 2.2 4.1 3.4 6.1 1.2 2 2.5 3.9 3.9 5.8.7.9 1.4 1.9 2.4 2.6 1 .7 2.1 1.2 3.3 1.4.6.1 1.2.1 1.9-.2.6-.2 1.3-.7 1.4-1.4.3-1 .4-2 .3-3.1 1.8.2 3.5.3 5.3.3 0 .7-.1 1.4.1 2.1.1.4.2.9.4 1.3s.7.8 1.1.9c.9.3 1.8.2 2.6.1.8-.2 1.7-.5 2.3-1.1 1.3-1.1 2.2-2.5 3.2-3.9.9-1.4 1.8-2.8 2.6-4.2 1.6-2.7 3-5.5 4.3-8.4.6-1.4 1.2-2.9 1.5-4.5 0-.4.1-.8 0-1.2zm-.7 1.1c-.2 1.5-.7 3-1.3 4.5-1.1 2.9-2.6 5.7-4.1 8.5-.8 1.4-1.7 2.8-2.7 4.2-.9 1.3-2 2.7-3.3 3.6-.6.5-1.4.7-2.2.9-.8.1-1.6.1-2.3-.2-.3-.1-.6-.3-.7-.7-.1-.3-.2-.7-.2-1.1-.1-.8-.1-1.6 0-2.4l.1-.4h-.4c-2 0-4.1-.3-6.2-.4l-.6-.1.1.6c.2 1.1.1 2.2-.2 3.2-.2.9-1.4 1.2-2.4 1.1-1.1-.1-2.1-.5-3-1.1-.9-.7-1.6-1.6-2.3-2.4-1.4-1.8-2.7-3.7-3.9-5.7-1.2-2-2.4-4-3.3-6.1-.5-1.1-.8-2.1-1.1-3.2-.3-1.1-.5-2.3-.1-3.3.2-.5.6-.8 1-.9.5-.1 1 0 1.5.2 1.1.4 2.1.9 3.2 1.3 2.2.9 4.5 1.6 6.8 1.7 2.3.2 4.6 0 6.9-.4 3.1.7 6.4.6 9.5 0 .8-.1 1.6-.3 2.3-.5.8-.2 1.6-.3 2.3-.6 1.5-.5 2.9-1.3 4.3-1.9.7-.3 1.5-.6 1.9-.3.5.4.5 1.2.4 1.9zm-33.1-2.3c1-.5 2-1.3 2.5-2.3-1 .6-1.9 1.2-2.9 1.6-1 .5-2 .9-3 1.3 1.2.2 2.4-.1 3.4-.6zm-7.9-2.2c.7-1.1 1.5-2 2.5-2.9-1.3.4-2.4 1.4-3.2 2.5-.7 1.2-1.2 2.6-1 3.9.5-1.2 1-2.4 1.7-3.5zm42.9 2.9c.5 2.1-.1 4.5-1.4 6.3 1.8-1.5 2.7-4.1 2.2-6.5s-2.4-4.4-4.7-5c1.9 1.2 3.4 3.1 3.9 5.2zm-43 13.8c-.4-1.8-.9-3.4-1.3-5.2-.4-1.7-.7-3.4-1.1-5.2-.2 1.8 0 3.6.4 5.4.3 1.8 1 3.5 2 5zm41.5 4.9c.4-2.2.8-4.4 1.3-6.5.5-2.1 1.1-4.3 1.8-6.4-1.2 1.9-2 4.1-2.5 6.2-.6 2.1-.8 4.4-.6 6.7zm-35.6 9.4c-.6-1.8-1-3.7-1.4-5.5-.3-1.9-.5-3.8-.7-5.7-.2 1.9-.1 3.9.1 5.8s.7 3.8 1.2 5.7c.6 1.9 1.3 3.6 2.3 5.3.9 1.7 2 3.3 3.3 4.8-1-1.6-1.9-3.3-2.8-5-.7-1.8-1.5-3.6-2-5.4zm10.9 10.3c0 .8.4 1.4.8 2.1.4.6 1 1.1 1.7 1.4-.3-.7-.7-1.2-1.1-1.8-.4-.6-.8-1.2-1.4-1.7zm-5.3-13.4c.3 1.8.9 3.5 1.7 5.1.8 1.6 1.8 3.1 3.1 4.4-.8-1.6-1.7-3.2-2.5-4.8-.7-1.5-1.4-3.1-2.3-4.7zm6 6.2c-.3-.7-.6-1.4-1.2-1.9 0 .8.2 1.5.5 2.2.3.7.6 1.4 1.2 1.9 0-.8-.2-1.5-.5-2.2zm1.4-9.1c-.3 1.2-.2 2.5 0 3.7.2 1.2.7 2.4 1.4 3.4-.2-1.2-.4-2.4-.6-3.5-.3-1.3-.5-2.4-.8-3.6zm3.1 15.1c.1 1 .6 1.9 1.1 2.8.5.8 1.2 1.6 2.1 2.1-.4-.9-.9-1.7-1.4-2.5-.6-.9-1.1-1.7-1.8-2.4zm6.4-4.7c.9-1.3 1.5-2.7 1.9-4.2.4-1.5.7-3 .6-4.6-.5 1.5-.9 2.9-1.3 4.4-.4 1.4-.8 2.9-1.2 4.4zm6.7 5.3c.8-1.9 1.4-3.9 2-5.8.5-2 1-4 1.2-6-.8 1.9-1.4 3.9-2 5.8-.5 2-.9 4-1.2 6zm15.6-15c-.3 1.2-.7 2.5-1.1 3.7-.4 1.2-.9 2.4-1.5 3.6-.6 1.2-1.2 2.3-1.8 3.4.9-1 1.7-2 2.3-3.2.7-1.1 1.2-2.3 1.7-3.6.4-1.2.8-2.5 1-3.8.2-1.3.3-2.6.3-3.9-.3 1.3-.5 2.6-.9 3.8zm2.1-21.4c-.3 2.3-.9 4.5-1.5 6.8 1.2-2 1.9-4.3 2.2-6.7.3-2.3.2-4.8-.4-7 .1 2.3 0 4.6-.3 6.9zm-56.7 19.4c-.7-2-1.3-4-1.8-6s-1-4.1-1.4-6.2c.1 2.1.4 4.2.8 6.3.4 2.1 1 4.1 1.7 6.1s1.5 4 2.5 5.9c1 1.9 2 3.7 3.3 5.4-1-1.9-1.9-3.8-2.8-5.7-.9-1.9-1.6-3.8-2.3-5.8zm-6.1-2.5c-.7-1.9-1.3-3.8-1.8-5.7a56 56 0 0 1-1.2-5.9c0 2 .2 4.1.6 6 .4 2 1 4 1.7 5.9.7 1.9 1.6 3.8 2.7 5.5 1 1.8 2.2 3.4 3.6 4.9-1.1-1.7-2.1-3.4-3.1-5.2-1-1.8-1.8-3.6-2.5-5.5zm-4-4c-.5-1.6-.9-3.2-1.2-4.9-.3-1.6-.6-3.3-.9-5-.1 1.7.1 3.4.3 5.1.2 1.7.6 3.4 1.1 5 .5 1.6 1.1 3.2 1.8 4.8.7 1.5 1.6 3 2.6 4.4-.7-1.5-1.4-3.1-2-4.6-.7-1.6-1.2-3.2-1.7-4.8zm-4.6-8.6c-.2-1.6-.3-3.2-.3-4.9 0-1.6 0-3.3.1-4.9-.4 1.6-.6 3.3-.7 4.9-.1 1.7 0 3.3.2 5 .2 1.7.5 3.3 1 4.9s1 3.1 1.8 4.6c-.5-1.6-.9-3.2-1.2-4.8-.4-1.6-.7-3.2-.9-4.8zm-2.5-16.2c-.1 1.5-.1 3 .2 4.5.3-1.5.4-3 .5-4.4.1-1.5.2-3 0-4.5-.4 1.4-.6 2.9-.7 4.4zm80.9 12c0 1.6.1 3.2 0 4.8-.1 1.6-.1 3.2-.3 4.8-.1 1.6-.3 3.2-.6 4.8-.2 1.6-.5 3.2-.9 4.8.6-1.5 1.1-3.1 1.4-4.6.4-1.6.6-3.2.7-4.8.1-1.6.2-3.2.1-4.9.1-1.7-.1-3.3-.4-4.9zm2.2-8.9c-.6-2.4-1.4-4.8-2.4-7 .7 2.4 1.3 4.7 1.8 7.1.5 2.4.9 4.8 1.1 7.2.3 2.4.4 4.9.4 7.3 0 2.4-.1 4.9-.3 7.4.5-2.4.8-4.9.9-7.3.1-2.5 0-4.9-.2-7.4-.3-2.5-.7-4.9-1.3-7.3zm.7-8.9c-.4-1.4-.7-2.8-1.2-4.2s-.9-2.7-1.5-4.1l.9 4.2c.3 1.4.7 2.8 1 4.2.4 1.4.7 2.8 1.1 4.2s.7 2.8 1.2 4.2c-.1-1.4-.4-2.9-.6-4.3-.2-1.4-.5-2.8-.9-4.2zm-.4-8.7c.1-.9-.1-1.7-.4-2.5-.2-.8-.6-1.6-1.1-2.3-.1.9.1 1.7.4 2.5.3.8.6 1.6 1.1 2.3zm-38 54.6c-.2 1-.2 1.9-.1 3 .4-.9.7-1.9.8-2.8.2-1 .2-1.9.1-3-.4.9-.6 1.8-.8 2.8z" fill="#1b141c" stroke-width="none" opacity="1"></path></g></g></g><g id="svga-group-mustache-single-move" transform="matrix(1,0,0,1,0,0)"><g id="svga-group-mustache-single"></g></g><g id="svga-group-nose-single-move" transform="matrix(1,0,0,1,0,0)"><g id="svga-group-nose-single"><path id="SvgjsPath5106" d="M95.58 112.15c.82 0 1.4.7 1.57 1.63.17.93 1.58 2.48 3.09 2.57 1.51.09 2.04-.47 2.22-1.4.17-.93.64-2.62 1.11-2.68.47-.06.93.12 1.17.76.23.64.7 2.04 1.34 2.22.64.17 1.81-.7 2.27-1.17.47-.47 1.52-2.74 1.57-4.14.06-1.4-.87-4.02-1.92-4.78s-2.51-2.1-2.86-2.51c-.35-.41-.58-2.1-.76-3.09s-.99-2.16-2.86-2.57c-1.87-.41-5.48.06-5.83 1.63-.35 1.57-.23 5.77-.58 6.24s-1.98 2.27-2.8 3.21c-.82.93-1.98 3.03-1.69 5.13.29 2.1 1.05 2.74 2.04 2.33.99-.41 1.75-2.1 1.98-2.62.24-.53.94-.76.94-.76z" fill="#f0c7b1" stroke-width="none" opacity="1" stroke="none"></path><path id="SvgjsPath5107" d="M97.05 83.93c-.2 3.57-.46 7.14-.71 10.71l-.43 5.36-.24 2.68-.13 1.34-.08.68-.08.4c-.03.07-.08.15-.12.22-.05.08-.08.11-.12.16-.61.74-1.22 1.34-1.78 2.03-.56.67-1.09 1.37-1.52 2.11-.43.74-.76 1.53-.86 2.33-.02.2-.05.4-.02.6.01.2.01.39.07.6.07.42.19.81.35 1.17.17.35.4.64.64.73.22.11.51.02.79-.19s.52-.53.71-.89c.11-.17.18-.37.27-.55.11-.22.19-.45.33-.66.25-.42.6-.91 1.28-1.1.33-.07.71-.03.98.13.28.15.5.35.67.56.34.43.54.92.65 1.41l.02.09.02.06.04.11c.01.08.07.15.11.23.09.15.19.29.33.42.52.53 1.31.91 2.07 1.01.38.05.76.02 1.01-.11.07-.03.1-.08.16-.11.05-.06.12-.12.17-.2.11-.15.21-.31.29-.5.18-.36.32-.77.47-1.2.16-.43.28-.88.69-1.36.22-.25.63-.45 1.03-.37.42.08.68.38.82.6.3.47.43.9.6 1.31.15.4.33.82.52 1 .1.07.08.08.26.07.16-.03.34-.07.52-.14.72-.29 1.34-.88 1.77-1.57.45-.69.68-1.51.77-2.34.1-.84.06-1.71-.12-2.53-.18-.83-.52-1.62-.99-2.32-.47-.71-1.1-1.31-1.77-1.86-.34-.27-.7-.52-1.07-.79-.09-.06-.19-.14-.28-.21l-.07-.06c-.03-.03-.06-.07-.09-.1-.07-.08-.09-.13-.12-.19-.12-.24-.18-.46-.25-.68-.24-.89-.4-1.77-.54-2.66-.27-1.78-.48-3.55-.68-5.33-.2-1.78-.36-3.56-.5-5.35.51 3.54.98 7.09 1.67 10.59.17.87.35 1.75.6 2.58.07.2.14.41.22.57.02.04.04.08.06.09.01.01.01.02.02.03l.06.05c.08.06.17.12.26.19.36.25.75.5 1.11.77.73.55 1.42 1.19 1.97 1.96.55.76.95 1.64 1.17 2.55.23.92.3 1.86.21 2.8-.09.94-.35 1.89-.88 2.72-.51.83-1.24 1.54-2.18 1.94a3 3 0 0 1-.77.21c-.16 0-.29.03-.5-.04a.682.682 0 0 1-.26-.11c-.08-.05-.16-.1-.21-.16-.45-.46-.58-.91-.76-1.33-.17-.41-.32-.84-.51-1.12-.1-.16-.19-.2-.21-.2-.04 0-.08 0-.17.08-.18.21-.34.63-.48 1.04-.14.42-.29.86-.5 1.3-.1.22-.23.44-.38.66-.08.11-.17.21-.27.31-.12.1-.24.21-.38.28-.55.29-1.1.29-1.6.24a4.683 4.683 0 0 1-2.68-1.28c-.18-.18-.35-.4-.48-.64-.06-.13-.14-.24-.17-.38l-.06-.21-.05-.17c-.08-.37-.24-.74-.45-1.01-.22-.29-.47-.4-.65-.36-.21.04-.48.3-.67.64-.11.16-.18.35-.27.53-.11.22-.19.44-.32.65-.24.43-.54.84-.98 1.17-.21.17-.47.3-.77.38-.15.03-.32.04-.47.04-.16-.03-.33-.04-.47-.12-.6-.26-.9-.76-1.12-1.21-.2-.46-.33-.93-.41-1.4-.05-.23-.06-.48-.08-.73-.03-.25.01-.5.04-.74.13-.98.53-1.86 1-2.66.48-.8 1.04-1.53 1.64-2.22.59-.68 1.26-1.33 1.81-1.96.08-.09.1-.13.13-.17.01-.09.03-.17.05-.25l.09-.65.17-1.33.3-2.66.57-5.33 1.17-10.68z" fill="#c27b55" stroke-width="none" opacity="1" stroke="none"></path></g></g><g id="svga-group-hair-front"><path id="SvgjsPath8530" d="M62.3 84.7s1.5-2.7 1.7-7.3 0-10.9.2-14.2c.2-3.3 1-8.2 1.5-10 .4-1.8.6-3.5 1.8-5.3 1.2-1.8 2.4-3.6 5.2-4.3 2.8-.7 7.6-3 8.7-4.3 0 0 3-.6 3.7-1 0 0 5.3 2.6 7.2 2.8 1.9.2 8.2.5 12.3-.7s10.1-2.6 12.4-2.2 12.2-1.1 16.6 12.7c0 0 1.1 4.3 1.2 10.4.1 6.1.3 10.1.8 11.9.4 1.8 1.2 5.6 1.2 7.3s.6 2.5.6 2.5 1.7-3.8 2.2-5.8 1.9-11.6 2.1-13.1c.2-1.5.6-6.4.9-8.5.3-2 0-9.5 0-9.5s.1-4.7-.6-6.1c-.7-1.3-1.4-3.5-2.9-4.8 0 0 .1-1.6-.1-2.7s-2.1-5.3-8.2-10.6-13.3-9.4-21.6-9.4c0 0 2.9-.4 4.8-.6 0 0-5.5-.7-8.1-.3l4.3-.6s-7.2-1.4-12.3.1c0 0 .7-1.2 4.2-2.5 0 0-7.8-2.1-15.4 3.1 0 0-5.9-.3-11.7 6.8 0 0-3.7 1.1-4.7 1.8s-6.2 3.1-6.9 11.4c0 0-5 .6-5.5 11l.5 8.7s-1.8 3.6-1.8 7.3 1 6 1.1 7.8c.1 1.8.7 5.2.7 5.2s1.8 4.2 2.1 5.9c.2 1.9 1.8 7.1 1.8 7.1z" fill="#2a232b" stroke-width="none" opacity="1"></path><path id="SvgjsPath8531" d="M143 46.5c.1-1 .1-2 0-3s-.3-2-.6-3-.7-1.9-1.1-2.8c-.4-.8-1-1.6-1.6-2.4.2-1.8-.4-3.5-1.2-5-.8-1.5-1.9-2.9-3.1-4.2-2.3-2.6-5-4.8-7.7-6.9-2.8-2-5.8-3.8-9.1-4.9-1.6-.6-3.3-1-5-1.2-1.7-.2-3.4-.3-5.1-.1 3.4-.3 6.8.5 10 1.7s6.1 3 8.8 5.1c1.4 1 2.6 2.1 3.9 3.3 1.3 1.1 2.5 2.3 3.6 3.6 1.1 1.3 2.1 2.6 2.9 4.1.8 1.4 1.3 3.1 1.1 4.6v.2l.2.2c.6.7 1.1 1.5 1.6 2.3.4.8.8 1.7 1.1 2.6s.5 1.8.5 2.8c.1 1 .1 1.9 0 2.9.2 3.1.2 6.2.1 9.3-.1 3.1-.7 6.1-1.1 9.2-.4 3.1-.8 6.2-1.3 9.2-.2 1.5-.5 3.1-.9 4.5-.5 1.4-1.1 2.9-1.5 4.4.5-1.5 1.1-2.9 1.7-4.3.5-1.5.8-3 1.1-4.6.6-3.1 1.1-6.1 1.5-9.2l.7-4.6c.3-1.5.4-3.1.5-4.7.2-2.9.2-6 0-9.1zm-7.5 1.3c.1-.8.4-1.6.6-2.4.2-.8.5-1.6.8-2.4l.8-2.4.4-1.2.2-.6.1-.3.1-.2v-.1.1-.1c-.1 0 0 0-.1.1l-.1.1-.2.3-.3.5-.6 1.1c-.4.8-.8 1.5-1.1 2.3-.7 1.6-1.3 3.2-1.6 4.9-.2 1.2-.2 2.4-.2 3.6-.1-.5-.3-1-.4-1.5-.5-1.8-1.2-3.6-2-5.3s-1.7-3.4-3-4.9c-2.4-3-5.9-4.9-9.4-6.3-3.5-1.2-6.3-3.8-8.2-6.9-.9-1.5-1.7-3.3-1.8-5.1-.1-.9.1-1.8.4-2.6.4-.8.9-1.5 1.7-2 1.4-1.1 3.3-1.6 5.1-1.5 1.8.1 3.7.7 5.3 1.6-1.6-1-3.4-1.6-5.3-1.8-1.9-.2-3.9.2-5.4 1.4-.8.5-1.5 1.3-1.9 2.2-.4.9-.6 1.9-.5 2.9.1 2 .8 3.8 1.8 5.4 1.9 3.3 5 6 8.5 7.3 3.4 1.4 6.7 3.3 8.9 6.1 1.8 2.2 3 4.8 4 7.5-1.3-3.2-3.6-6.2-6.7-8-1.8-1.1-3.9-1.7-6-1.8h-.4c-3.2-1-6.6-1.6-10-1.7h-2.5l-.8-.1c-.5 0-1.1-.2-1.6-.3-.5-.2-1-.3-1.5-.6-2-.9-3.7-2.3-4.8-4.1-1.2-1.8-2-3.9-2.3-6-.3-2.2-.2-4.4.5-6.4s2.3-3.7 4.1-4.9c1.9-1.1 4.1-1.8 6.3-2.1-2.2.1-4.5.6-6.5 1.7s-3.7 2.8-4.6 5c-.2.5-.4 1.1-.5 1.7-.1.6-.2 1.1-.2 1.7 0 .6-.1 1.1-.1 1.7 0 .6.1 1.1.1 1.7.3 2.3 1.1 4.5 2.3 6.5 1.3 1.9 3.2 3.5 5.3 4.4 2.1 1 4.6 1.1 6.8.9 2.2-.1 4.4.1 6.6.5.6.1 1.3.2 1.9.3-1.5 0-3 0-4.4.2-4.2.5-8.2 2-12.2 2.6-2 .3-4.1.4-6.1.2-2.1-.1-4.1-.6-5.9-1.4-1.8-.8-3.5-2-4.8-3.6-1.3-1.5-2.2-3.4-2.8-5.3s-.8-4-.7-6c.1-2 .3-4.1 1.1-6 1.6-3.7 4.9-6.6 8.6-8.2 3.4-1.5 7.3-2 10.9-1.4-.5.2-1 .3-1.5.6-.4.2-.8.4-1.2.7-.4.3-.7.6-.9 1.1l-.1.4.4-.1c1-.4 2.1-.6 3.1-.7 1.1-.1 2.1-.2 3.2-.2s2.2.1 3.2.1c1.1.1 2.2.2 3.2.4-1.1-.2-2.1-.4-3.2-.5s-2.2-.2-3.2-.2c-1.1 0-2.2 0-3.3.1-.9.1-1.8.2-2.7.5.2-.2.3-.4.5-.5.3-.2.7-.4 1.1-.6.8-.3 1.6-.6 2.5-.8l1.1-.2-1.1-.3c-4-1-8.5-.6-12.4 1-1.3.5-2.6 1.2-3.7 2.1-1.5.2-2.9.6-4.3 1.2-1.7.7-3.3 1.7-4.7 2.8-.4.3-.7.6-1.1.9-.3.3-.6.7-.9 1-.3.4-.5.8-.8 1.1-3.1.6-6.1 2.2-8.3 4.6-1.3 1.5-2.1 3.3-2.7 5.2-.3 1.2-.5 2.4-.5 3.6-1.5.5-2.8 1.6-3.6 3-.9 1.5-1.3 3.3-1.5 5-.4 3.3-.4 6.7 0 10.1v.2c-.9 2.7-1.6 5.5-1.8 8.4V61c.1.7.2 1.5.4 2.2.3 1.4.5 2.8.7 4.2.2 1.4.4 2.8.8 4.2.2.7.4 1.4.7 2.1.3.6.5 1.3.8 2 .9 2.7 1.7 5.4 2.4 8.2-.5-2.8-1-5.6-1.9-8.4-.2-.7-.4-1.4-.7-2.1-.3-.7-.5-1.3-.6-2-.3-1.4-.4-2.8-.6-4.2-.2-1.4-.4-2.8-.7-4.2-.2-.7-.3-1.4-.3-2v-2c.1-2.2.6-4.4 1.2-6.5.7 2.9 2.2 8.2 5.7 12.4 0 1.1.1 2.2 0 3.4 0 1.9-.1 3.8-.1 5.6 0 1.9-.1 3.8-.3 5.6-.1.9-.1 1.9-.3 2.8-.2.9-.2 1.9-.7 2.7.5-.8.7-1.8.9-2.7s.4-1.9.5-2.8c.2-1.9.4-3.8.6-5.6.2-1.9.2-3.8.3-5.7.1-1.9 0-3.8 0-5.6.1-3.7.6-7.5 1.5-11.1.4-1.8 1-3.6 2.2-5 1.2-1.4 2.8-2.4 4.6-3-1.8.4-3.6 1.4-5 2.7-.7.7-1.2 1.5-1.6 2.4-.4.9-.7 1.8-1 2.7-.6 1.8-.9 3.7-1.2 5.6-.3 1.9-.5 3.8-.6 5.7v.6c-4.1-5.7-5.1-13-5.1-13.1h-.1c-.2-1.6-.3-3.2-.4-4.8-.1-1.7 0-3.4.1-5.2.1-1.7.4-3.4 1.2-4.9.7-1.3 1.8-2.5 3.3-3.1 0 .7 0 1.5.1 2.2.3 1.9 1 3.9 2.4 5.3 1.4 1.5 3.4 2.2 5.3 2.4 3.9.6 7.9-.6 10.8-3-1.6 1-3.3 1.8-5.2 2.2-1.8.4-3.7.4-5.5.1-1.8-.4-3.6-1-4.8-2.3-1.2-1.3-1.9-3.1-2.1-4.9-.5-3.6.5-7.5 2.7-10.4 1.2-1.4 2.7-2.6 4.3-3.5 1-.6 2.2-1 3.3-1.4-.2.4-.3.7-.5 1.1-.7 1.7-1.1 3.6-1.2 5.4-.1 1.9 0 3.7.4 5.5.4 1.8 1 3.6 2.2 5.1.6.7 1.4 1.4 2.2 1.8.8.4 1.7.7 2.6.9 1.8.3 3.6.2 5.2-.6 1 .8 2.2 1.5 3.4 2.1 2 .8 4.1 1.3 6.2 1.4 2.1.2 4.2.1 6.3-.2 4.2-.7 8.1-2.2 12.2-2.8 2.6-.3 5.3-.5 7.8-.1l1.2.3c-.2-.1-.4-.1-.6-.2 1.3.3 2.5.7 3.6 1.3 3.5 1.9 6.1 5.4 7.5 9.2.1.2.2.5.2.7.5 1.8.9 3.6 1.1 5.4 0 .2 0 .3.1.5 0 .6-.1 1.3-.2 1.9.1-.3.2-.5.3-.8.1 1.3 0 2.6 0 3.9 0 3.7.4 7.5.9 11.2.3 1.8.7 3.7 1.1 5.5.4 1.8.2 3.7.1 5.5.1-.9.3-1.8.4-2.8.1-.9 0-1.9-.1-2.8-.1-.9-.3-1.8-.5-2.8s-.3-1.8-.4-2.8c-.4-3.7-.7-7.4-.6-11.1.1-1.8.1-3.8-.1-5.6 0-.3-.1-.7-.1-1 .1-.5.1-1 .2-1.5.3-1.3.3-3 .6-4.6zM80 38.4c-1.7-.5-3.4-1.3-4.3-2.6-1-1.4-1.5-3.1-1.9-4.9-.3-1.7-.4-3.5-.3-5.3.2-2.4.8-4.8 2-6.9.2 0 .5-.1.8-.1-.2 0-.5 0-.7.1.6-.9 1.2-1.7 2.1-2.4 1.3-1.2 2.8-2.2 4.4-3 1.2-.6 2.6-1.1 3.9-1.5-2.2 1.6-4 3.8-5.2 6.4-.9 2-1.1 4.2-1.2 6.3-.1 2.1.2 4.3.7 6.3s1.6 4 3 5.7c.5.6 1.1 1.2 1.8 1.7-1.7.6-3.5.6-5.1.2z" fill="#1b141c" stroke-width="none" opacity="1"></path></g><g id="svga-group-glasses-single-move" transform="matrix(1,0,0,1,0,4)"><g id="svga-group-glasses-single"></g></g></g></g></g><rect id="svga-credit-rect" width="200" height="15" x="0" y="185" fill="#ecf0f1" opacity="0.5" style="display: none;"></rect><text id="svga-credit-text" font-family="Avenir Next, Roboto, Helvetica, Arial, sans-serif" font-size="10px" text-anchor="start" font-weight="400" size="10px" anchor="start" weight="400" fill="#333333" x="33.40447998046875" y="182.60824704170227" style="display: none;"><tspan id="SvgjsTspan4727" dy="13" x="33.40447998046875">Created on AvatarMaker.com</tspan></text></g><defs id="SvgjsDefs4674"><linearGradient id="SvgjsLinearGradient5077" x1="100.0394" y1="79.6722" x2="100.0394" y2="122.2396" gradientUnits="userSpaceOnUse" class="svga-on-canvas-nose-gradient-single-0-null"><stop id="SvgjsStop5078" stop-opacity="0" stop-color="#ffe4d6" offset="0" ></stop><stop id="SvgjsStop5079" stop-opacity="0.9727" stop-color="#f0c7b1" offset="0.7584" ></stop><stop id="SvgjsStop5080" stop-opacity="0.9769" stop-color="#e8b9a0" offset="0.7953" ></stop><stop id="SvgjsStop5081" stop-opacity="0.9852" stop-color="#e1ac8f" offset="0.8691" ></stop><stop id="SvgjsStop5082" stop-opacity="0.9968" stop-color="#d19271" offset="0.972" ></stop><stop id="SvgjsStop5083" stop-opacity="1" stop-color="#c27b55" offset="1" ></stop></linearGradient><linearGradient id="SvgjsLinearGradient7817" x1="78.75" y1="71.43" x2="78.75" y2="103.45" gradientUnits="userSpaceOnUse" class="svga-on-canvas-glasses-gradient-single-0-null"><stop id="SvgjsStop7818" stop-opacity="1" stop-color="#211810" offset="0" ></stop><stop id="SvgjsStop7819" stop-opacity="0.5248" stop-color="#231910" offset="0.4752" ></stop><stop id="SvgjsStop7820" stop-opacity="0.3536" stop-color="#2a1d12" offset="0.6464" ></stop><stop id="SvgjsStop7821" stop-opacity="0.2315" stop-color="#352315" offset="0.7685" ></stop><stop id="SvgjsStop7822" stop-opacity="0.1329" stop-color="#462d18" offset="0.8671" ></stop><stop id="SvgjsStop7823" stop-opacity="4.940000e-02" stop-color="#5c391d" offset="0.9506" ></stop><stop id="SvgjsStop7824" stop-opacity="0" stop-color="#6d4221" offset="1" ></stop></linearGradient><linearGradient id="SvgjsLinearGradient7826" x1="121.01" y1="71.43" x2="121.01" y2="103.45" gradientUnits="userSpaceOnUse" class="svga-on-canvas-glasses-gradient-single-1-null"><stop id="SvgjsStop7827" stop-opacity="1" stop-color="#211810" offset="0" ></stop><stop id="SvgjsStop7828" stop-opacity="0.5248" stop-color="#231910" offset="0.4752" ></stop><stop id="SvgjsStop7829" stop-opacity="0.3536" stop-color="#2a1d12" offset="0.6464" ></stop><stop id="SvgjsStop7830" stop-opacity="0.2315" stop-color="#352315" offset="0.7685" ></stop><stop id="SvgjsStop7831" stop-opacity="0.1329" stop-color="#462d18" offset="0.8671" ></stop><stop id="SvgjsStop7832" stop-opacity="4.940000e-02" stop-color="#5c391d" offset="0.9506" ></stop><stop id="SvgjsStop7833" stop-opacity="0" stop-color="#6d4221" offset="1" ></stop></linearGradient><linearGradient id="SvgjsLinearGradient7899" x1="79.1" y1="71.7" x2="79.1" y2="105.64" gradientUnits="userSpaceOnUse" class="svga-on-canvas-glasses-gradient-single-0-null"><stop id="SvgjsStop7900" stop-opacity="1" stop-color="#b4c0cf" offset="0" ></stop><stop id="SvgjsStop7901" stop-opacity="0.9374" stop-color="#abbace" offset="0.0626" ></stop><stop id="SvgjsStop7902" stop-opacity="0.679" stop-color="#8aa3ca" offset="0.321" ></stop><stop id="SvgjsStop7903" stop-opacity="0.4305" stop-color="#7393c6" offset="0.5695" ></stop><stop id="SvgjsStop7904" stop-opacity="0.1987" stop-color="#6589c5" offset="0.8013" ></stop><stop id="SvgjsStop7905" stop-opacity="0" stop-color="#6086c4" offset="1" ></stop></linearGradient><linearGradient id="SvgjsLinearGradient7907" x1="121.5" y1="71.7" x2="121.5" y2="105.64" gradientUnits="userSpaceOnUse" class="svga-on-canvas-glasses-gradient-single-1-null"><stop id="SvgjsStop7908" stop-opacity="1" stop-color="#b4c0cf" offset="0" ></stop><stop id="SvgjsStop7909" stop-opacity="0.9374" stop-color="#abbace" offset="0.0626" ></stop><stop id="SvgjsStop7910" stop-opacity="0.679" stop-color="#8aa3ca" offset="0.321" ></stop><stop id="SvgjsStop7911" stop-opacity="0.4305" stop-color="#7393c6" offset="0.5695" ></stop><stop id="SvgjsStop7912" stop-opacity="0.1987" stop-color="#6589c5" offset="0.8013" ></stop><stop id="SvgjsStop7913" stop-opacity="0" stop-color="#6086c4" offset="1" ></stop></linearGradient><linearGradient id="SvgjsLinearGradient7981" x1="87.7268" y1="112.9923" x2="87.7268" y2="86.5667" gradientTransform="matrix(0.9926 -1.200000e-02 0 -1 -5.897 192.4354)" gradientUnits="userSpaceOnUse" class="svga-on-canvas-glasses-gradient-single-0-null"><stop id="SvgjsStop7982" stop-opacity="1" stop-color="#3d2d1c" offset="0.0208" ></stop><stop id="SvgjsStop7983" stop-opacity="0.6291" stop-color="#402e1c" offset="0.3825" ></stop><stop id="SvgjsStop7984" stop-opacity="0.3897" stop-color="#48321d" offset="0.6159" ></stop><stop id="SvgjsStop7985" stop-opacity="0.1881" stop-color="#57381f" offset="0.8124" ></stop><stop id="SvgjsStop7986" stop-opacity="7.593334e-03" stop-color="#6c4221" offset="0.9884" ></stop><stop id="SvgjsStop7987" stop-opacity="0" stop-color="#6d4221" offset="0.9958" ></stop></linearGradient><linearGradient id="SvgjsLinearGradient7989" x1="-1744.0752" y1="112.7015" x2="-1744.0752" y2="87.2129" gradientTransform="matrix(-0.9926 1.200000e-02 0 -1 -1611.6344 211.8458)" gradientUnits="userSpaceOnUse" class="svga-on-canvas-glasses-gradient-single-1-null"><stop id="SvgjsStop7990" stop-opacity="1" stop-color="#3d2d1c" offset="0.0208" ></stop><stop id="SvgjsStop7991" stop-opacity="0.6291" stop-color="#402e1c" offset="0.3825" ></stop><stop id="SvgjsStop7992" stop-opacity="0.3897" stop-color="#48321d" offset="0.6159" ></stop><stop id="SvgjsStop7993" stop-opacity="0.1881" stop-color="#57381f" offset="0.8124" ></stop><stop id="SvgjsStop7994" stop-opacity="7.593334e-03" stop-color="#6c4221" offset="0.9884" ></stop><stop id="SvgjsStop7995" stop-opacity="0" stop-color="#6d4221" offset="0.9958" ></stop></linearGradient></defs></svg>